<svg xmlns="http://www.w3.org/2000/svg" viewBox="0 0 422 200" width="100">
<style type="text/css">
	.st0{fill:#ED1B35;}
	.st1{fill-rule:evenodd;clip-rule:evenodd;fill:#23323F;}
	.st2{fill:#FFFFFF;}
</style>
  <g>
    <path class="st0" d="M191,117.7a115.2,115.2,0,0,1-2.8,11.6,107.9,107.9,0,0,1-4.3,11.2A96.6,96.6,0,0,1,171.7,161a103.9,103.9,0,0,1-16.8,17,97.6,97.6,0,0,1-20.4,12.6,95.3,95.3,0,0,1-22.8,7.5,106.6,106.6,0,0,1-23.9,1.8A101.9,101.9,0,0,1,64,196.1l-2.8-.8-2.7-.9-2.8-1-2.8-1a97.3,97.3,0,0,1-11-4.9,81.6,81.6,0,0,1-20.1-14.2l-2.2-2.2-2.1-2.4-2-2.4-1.9-2.6a48.6,48.6,0,0,1-3.5-5.3l-.8-1.3-.7-1.3a22.9,22.9,0,0,1-1.4-2.7,70.6,70.6,0,0,1-4.8-11.6A55.2,55.2,0,0,1,.1,128.4a37.7,37.7,0,0,1,1.7-14l.3-.9.3-.9.7-1.7a11.1,11.1,0,0,0,.7-1.6l.9-1.6a37.6,37.6,0,0,1,3.9-5.9,39.8,39.8,0,0,1,4.9-5.2,38.1,38.1,0,0,1,6.2-4.3,31.9,31.9,0,0,1,15.1-3.5,36.8,36.8,0,0,1,14.3,3.6,31.2,31.2,0,0,1,6.2,4,33.8,33.8,0,0,1,5.3,5.4A38.1,38.1,0,0,1,67,114.3a72.2,72.2,0,0,1,2.6,12.4q.5,5.1.6,9.9a.4.4,0,0,0,.7.2c3.5-6.2,18.8-33.9,23.3-41.8a2.9,2.9,0,0,0-.3-3.3L61.1,52.4A8,8,0,0,1,73.3,42l28.4,32.3a2.9,2.9,0,0,0,4.7-.4c4.7-8.1,9.4-16.2,14.2-24.2a7.8,7.8,0,0,1,10.7-2.8,7.8,7.8,0,0,1,2.8,10.7h0L116.6,88.3a2.7,2.7,0,0,0,.4,3.3l28.1,32a9.6,9.6,0,0,1-.9,13.4,9.5,9.5,0,0,1-13.3-.9l-.2-.2-21.7-26a2.8,2.8,0,0,0-4.7.5L80.8,153.8a19,19,0,0,1-1.7,2.8,21.8,21.8,0,0,1-2.2,3.1l-1.3,1.4-.2.3-.6.5-.5.4-.9.6a19.1,19.1,0,0,1-3.8,2.4,14.1,14.1,0,0,1-3.6,1.1H64.5l-1.9-.2a5.7,5.7,0,0,1-2.2-.7l-2-1.1-.8-.6-.6-.7c-.2-.2-.5-.4-.6-.6L56,162a4.9,4.9,0,0,1-.7-1.1l-.3-.5-.2-.5a14.8,14.8,0,0,1-.9-2.8,23.3,23.3,0,0,1-.6-3.9c-.1-1.1-.1-2.2-.1-3.2-.2-4-.1-7.5-.2-11.1s-.3-6.9-.7-10.1c-.8-6.5-2.6-12.4-5.6-16.1a13.6,13.6,0,0,0-2.4-2.4,18.9,18.9,0,0,0-3-1.9,17.3,17.3,0,0,0-6.9-1.6,12.9,12.9,0,0,0-6.2,1.4,24.3,24.3,0,0,0-2.8,2,22.6,22.6,0,0,0-2.5,2.8,19.8,19.8,0,0,0-2.2,3.4l-.4.8-.3.9-.4.8c0,.2-.1.3-.1.5v.4a21.5,21.5,0,0,0-.9,7.7,38.8,38.8,0,0,0,1.7,8.5,64,64,0,0,0,3.6,8.7l1.2,2.2.6,1.1.6,1a33,33,0,0,0,2.6,3.9l1.3,1.9,1.5,1.8,1.5,1.8,1.7,1.7a65,65,0,0,0,15.5,11.3,75,75,0,0,0,9.1,4.2l2.3.9,2.4.9,2.5.8,2.5.8a85.7,85.7,0,0,0,19.5,3.4,88.5,88.5,0,0,0,19.9-1.3,80.4,80.4,0,0,0,19-5.9,82.7,82.7,0,0,0,17.1-10.3,78.4,78.4,0,0,0,14.2-14,81.4,81.4,0,0,0,10.6-17.1,94.7,94.7,0,0,0,3.7-9.3,81.2,81.2,0,0,0,2.5-9.7,79.9,79.9,0,0,0,1.5-20.1,79.5,79.5,0,0,0-3.2-19.9,86.9,86.9,0,0,0-20-34.8,89,89,0,0,0-15.6-13L134,24.4a23.9,23.9,0,0,0-2.2-1.2L129.5,22a76.6,76.6,0,0,0-9.3-4,84.3,84.3,0,0,0-19.9-4.4,82,82,0,0,0-20.4.4A84.8,84.8,0,0,0,42.2,28.9a6.1,6.1,0,0,1-8.5-1.4A6.1,6.1,0,0,1,35,19.1,98,98,0,0,1,78,1.2,102.8,102.8,0,0,1,101.5.3a95.9,95.9,0,0,1,23.1,4.8,87,87,0,0,1,11,4.4l2.6,1.3a13,13,0,0,1,2.6,1.4,42.7,42.7,0,0,1,5.1,3A101.2,101.2,0,0,1,164.3,30a100,100,0,0,1,24,40.5,103.6,103.6,0,0,1,4.2,23.4A99.7,99.7,0,0,1,191,117.7Z"/>
    <path class="st1" d="M230.9,153.9H399.5A21.5,21.5,0,0,1,421,175.4h0a21.5,21.5,0,0,1-21.5,21.5H230.9a21.6,21.6,0,0,1-21.6-21.5h0A21.6,21.6,0,0,1,230.9,153.9Z"/>
    <g>
      <path class="st2" d="M401.5,184.3a1.5,1.5,0,0,1-1.6,1.7H388.2a1.3,1.3,0,0,1-1.2-.5,1.7,1.7,0,0,1-.5-1.2v-18a1.7,1.7,0,0,1,2.9-1.3,2,2,0,0,1,.4,1.3v16.4h10a1.6,1.6,0,0,1,1.2.4A1.3,1.3,0,0,1,401.5,184.3Z"/>
      <path class="st2" d="M310.9,165a1.7,1.7,0,0,1,.5,1.2v18.1a1.7,1.7,0,0,1-.5,1.2,1.7,1.7,0,0,1-2.4,0,1.7,1.7,0,0,1-.5-1.2V166.2a1.7,1.7,0,0,1,2.9-1.2Z"/>
      <path class="st2" d="M244.6,170a10.8,10.8,0,0,1,1.4,5.3,10.1,10.1,0,0,1-1.4,5.2,8.3,8.3,0,0,1-1.3,1.8,10.9,10.9,0,0,1-2.6,2.1,10.4,10.4,0,0,1-5.2,1.4h-2.6a1.7,1.7,0,0,1-1.4-.6,2,2,0,0,1-.6-1.4,1.8,1.8,0,0,1,.6-1.4,2,2,0,0,1,1.4-.5h2.6a6.3,6.3,0,0,0,3.3-.9,6.9,6.9,0,0,0,2.4-2.4,6.5,6.5,0,0,0,0-6.6,6.9,6.9,0,0,0-2.4-2.4,6.3,6.3,0,0,0-3.3-.9h-2a.9.9,0,0,0-.8.8V171a2,2,0,0,1-.6,1.4,1.9,1.9,0,0,1-1.4.5,2,2,0,0,1-1.4-.5,1.9,1.9,0,0,1-.5-1.4v-2.4a3.8,3.8,0,0,1,3.8-3.8h2.9a9.5,9.5,0,0,1,5.2,1.4A10.9,10.9,0,0,1,244.6,170Z"/>
      <path class="st2" d="M345.3,165.1a1.7,1.7,0,0,1,0,2.4,1.6,1.6,0,0,1-1.2.4h-7v16.4a1.7,1.7,0,0,1-2.9,1.2,1.6,1.6,0,0,1-.4-1.2V167.9h-7.1a1.7,1.7,0,0,1-1.2-.5,1.3,1.3,0,0,1-.5-1.1,1.7,1.7,0,0,1,.5-1.3,1.6,1.6,0,0,1,1.2-.4h17.4A1.3,1.3,0,0,1,345.3,165.1Z"/>
      <path class="st2" d="M373.9,183.4a3.3,3.3,0,0,1,0,1.4h0a1.8,1.8,0,0,1-1.1,1l-.7.2a1.9,1.9,0,0,1-1.7-1.2l-5-11.9a1.2,1.2,0,0,0-1.1-.7,1.4,1.4,0,0,0-1.2.7l-4.9,11.9a1.8,1.8,0,0,1-2.1,1.1,1.8,1.8,0,0,1-1.3-.9,2.2,2.2,0,0,1-.1-1.6l7-16.9a2.9,2.9,0,0,1,2.6-1.7,2.7,2.7,0,0,1,2.5,1.7Z"/>
      <path class="st2" d="M279.1,172.4a7.7,7.7,0,0,0-.6,3,9.3,9.3,0,0,0,.5,2.9,8.7,8.7,0,0,0,4.1,4.1,7.3,7.3,0,0,0,3,.6,6.4,6.4,0,0,0,2.4-.4,5.8,5.8,0,0,0,2.1-1l.4-.3.3-.2v-4.3a1.5,1.5,0,0,1,1.5-1.4,1.4,1.4,0,0,1,1.2.6,1.5,1.5,0,0,1,.4,1.1v5.1a2.2,2.2,0,0,1-.5,1.1,13.8,13.8,0,0,1-3.5,2.2,11.5,11.5,0,0,1-4.1.8,10.8,10.8,0,0,1-4.4-.9,10.1,10.1,0,0,1-3.5-2.3,10.9,10.9,0,0,1-2.4-3.5,10.5,10.5,0,0,1-.8-4.4,9.9,9.9,0,0,1,.9-4.2,11.6,11.6,0,0,1,2.4-3.4,11.5,11.5,0,0,1,3.5-2.2,11,11,0,0,1,6.5-.7l2,.6,1.9,1,1.6,1.3a1.8,1.8,0,0,1,.6,1.3,1.4,1.4,0,0,1-.6,1.2,1.4,1.4,0,0,1-1,.5l-.9-.3-1.5-1a6.7,6.7,0,0,0-2.1-1,5.3,5.3,0,0,0-2.3-.4,8,8,0,0,0-3,.6,7.8,7.8,0,0,0-2.4,1.6A6.3,6.3,0,0,0,279.1,172.4Z"/>
      <path class="st2" d="M261.7,165a1.7,1.7,0,0,1,.5,1.2v18.1a1.7,1.7,0,0,1-.5,1.2,1.5,1.5,0,0,1-1.2.5,1.3,1.3,0,0,1-1.2-.5,1.7,1.7,0,0,1-.5-1.2V166.2a1.7,1.7,0,0,1,2.9-1.2Z"/>
    </g>
    <path class="st0" d="M227.8,28.4a8.6,8.6,0,0,1-.7,3.6,10.8,10.8,0,0,1-2,2.9,10,10,0,0,1-2.9,2,11.1,11.1,0,0,1-3.7.7,10.4,10.4,0,0,1-3.5-.7,12.1,12.1,0,0,1-3-2,13.2,13.2,0,0,1-1.9-2.9,8.6,8.6,0,0,1-.7-3.6,8.9,8.9,0,0,1,9.1-9.1,8.7,8.7,0,0,1,6.6,2.6A8.6,8.6,0,0,1,227.8,28.4Z"/>
    <path class="st0" d="M226.7,63.3v67.5a8.1,8.1,0,0,1-.6,3.1,7.6,7.6,0,0,1-4.3,4.3,8.3,8.3,0,0,1-3.2.6,8.1,8.1,0,0,1-5.7-2.3,9.3,9.3,0,0,1-1.8-2.6,8.1,8.1,0,0,1-.6-3.1V63.3a7.8,7.8,0,0,1,2.4-5.8,8,8,0,0,1,5.8-2.4,7.7,7.7,0,0,1,5.8,2.4A8.2,8.2,0,0,1,226.7,63.3Z"/>
    <path class="st0" d="M323.5,95.3v35.6a8,8,0,0,1-2.3,5.8,7.7,7.7,0,0,1-5.7,2.2,8.2,8.2,0,0,1-5.8-2.2,7.7,7.7,0,0,1-2.4-5.8V95.6a26.7,26.7,0,0,0-1.8-9.8,23.7,23.7,0,0,0-4.8-8,24.3,24.3,0,0,0-7.5-5.5,22.4,22.4,0,0,0-9.5-2,24.2,24.2,0,0,0-17.2,7.2,26.4,26.4,0,0,0-5,8,27.2,27.2,0,0,0-1.8,9.9v35.5a8,8,0,0,1-2.3,5.8,7.6,7.6,0,0,1-5.6,2.2,8.3,8.3,0,0,1-3.2-.6,7.6,7.6,0,0,1-2.6-1.6,8.3,8.3,0,0,1-2.5-5.8V95.3a41.2,41.2,0,0,1,3.1-16.1,39.3,39.3,0,0,1,21.2-21.9,38.6,38.6,0,0,1,15.9-3.2,38,38,0,0,1,15.9,3.2,38.7,38.7,0,0,1,12.6,8.8,41.2,41.2,0,0,1,8.3,13.1A43.1,43.1,0,0,1,323.5,95.3Z"/>
    <path class="st0" d="M418.7,79.9a44.7,44.7,0,0,0-9.1-13.4,43,43,0,0,0-13.4-9.1,42.9,42.9,0,0,0-33,0,43.4,43.4,0,0,0-13.5,9.1,43,43,0,0,0-9.1,13.4,42.5,42.5,0,0,0-3.4,16.6,41.6,41.6,0,0,0,3.4,16.5,44.6,44.6,0,0,0,9.1,13.5,43.4,43.4,0,0,0,13.5,9.1,42.9,42.9,0,0,0,33,0,43,43,0,0,0,13.4-9.1,46.5,46.5,0,0,0,9.1-13.5A41.6,41.6,0,0,0,422,96.5,42.4,42.4,0,0,0,418.7,79.9Zm-39,43a25.3,25.3,0,0,1-10.3-2.1,26.5,26.5,0,0,1-8.5-5.7,28.7,28.7,0,0,1-5.6-8.4,25.2,25.2,0,0,1-2.1-10.2A25.9,25.9,0,0,1,361,77.9a27.1,27.1,0,0,1,8.4-5.7,25.3,25.3,0,0,1,10.3-2.1A25.6,25.6,0,0,1,390,72.2a27.9,27.9,0,0,1,8.3,5.7,27,27,0,0,1,5.6,8.3,27.4,27.4,0,0,1,2,10.3,26.9,26.9,0,0,1-2,10.2,28.7,28.7,0,0,1-5.6,8.4,27.9,27.9,0,0,1-8.3,5.7A25.6,25.6,0,0,1,379.7,122.9Z"/>
  </g>
</svg>
